<svg xmlns="http://www.w3.org/2000/svg" version="1.1" xmlns:xlink="http://www.w3.org/1999/xlink" xmlns:svgjs="http://svgjs.dev/svgjs" width="1000" height="623" viewBox="0 0 1000 623"><g transform="matrix(1,0,0,1,-0.6060606060606233,23.433084325031587)"><svg viewBox="0 0 396 247" data-background-color="#ffffff" preserveAspectRatio="xMidYMid meet" height="623" width="1000" xmlns="http://www.w3.org/2000/svg" xmlns:xlink="http://www.w3.org/1999/xlink"><g id="tight-bounds" transform="matrix(1,0,0,1,0.2400000000000091,-0.09999999999999432)"><svg viewBox="0 0 395.52 247.2" height="247.2" width="395.52"><g><svg></svg></g><g><svg viewBox="0 0 395.52 247.2" height="247.2" width="395.52"><g transform="matrix(1,0,0,1,75.54432,77.34588453866537)"><svg viewBox="0 0 244.43135999999998 92.50823092266924" height="92.50823092266924" width="244.43135999999998"><g><svg viewBox="0 0 244.43135999999998 92.50823092266924" height="92.50823092266924" width="244.43135999999998"><g><svg viewBox="0 0 244.43135999999998 92.50823092266924" height="92.50823092266924" width="244.43135999999998"><g><svg viewBox="0 0 244.43135999999998 92.50823092266924" height="92.50823092266924" width="244.43135999999998"><g><svg viewBox="0 0 244.43135999999998 92.50823092266924" height="92.50823092266924" width="244.43135999999998"><g><svg viewBox="0 0 244.43135999999998 92.50823092266924" height="92.50823092266924" width="244.43135999999998"><g transform="matrix(1,0,0,1,0,0)"><svg width="244.43135999999998" viewBox="2.549999952316284 -52.900001525878906 207.5399932861328 78.55000305175781" height="92.50823092266924" data-palette-color="#113f67"><path d="M26.95-26.4Q26.2-26.1 25.15-26.1L25.15-26.1Q25.2-26.65 25.2-27.7L25.2-27.7Q25.2-30.4 24.25-31.73 23.3-33.05 20.75-33.25L20.75-33.25 18.3-20.1 18.4-20.05Q21.2-18.35 22.78-17.18 24.35-16 25.28-14.4 26.2-12.8 26.2-10.6L26.2-10.6Q26.2-7.75 24.7-5.33 23.2-2.9 20.5-1.33 17.8 0.25 14.4 0.55L14.4 0.55 12.1 12.65Q9.8 12.85 8.9 13.05L8.9 13.05 11.3 0.55Q8.2 0.3 5.6-0.68 3-1.65 2.55-2.6L2.55-2.6Q3.65-7.95 3.65-9.6L3.65-9.6Q4.25-10 5.1-10.1L5.1-10.1Q5.3-6.35 7.05-4.28 8.8-2.2 11.8-1.95L11.8-1.95 12.85-7.45 14.65-17.35Q11.2-19.6 9.58-21.48 7.95-23.35 7.95-26.1L7.95-26.1Q7.95-28.4 9.15-30.43 10.35-32.45 12.63-33.75 14.9-35.05 17.95-35.3L17.95-35.3 18.55-38.6 19.65-44.8Q20-44.65 21.13-44.55 22.25-44.45 22.95-44.45L22.95-44.45 21.15-35.25Q23.85-35 26-34.15 28.15-33.3 28.8-32.3L28.8-32.3Q27.9-30.1 26.95-26.4L26.95-26.4ZM12.65-26.9Q12.65-25.35 13.35-24.2 14.05-23.05 15.5-21.95L15.5-21.95 17.55-33Q15-32.4 13.83-30.68 12.65-28.95 12.65-26.9L12.65-26.9ZM20.7-9.7Q20.7-11.35 19.88-12.73 19.05-14.1 17.4-15.4L17.4-15.4 14.9-2.2Q17.7-2.9 19.2-5.1 20.7-7.3 20.7-9.7L20.7-9.7ZM72.05-6.2Q72.65-5.8 72.65-5.05L72.65-5.05Q72.65-3.75 71.52-2.5 70.4-1.25 68.67-0.48 66.95 0.3 65.3 0.3L65.3 0.3Q62.7 0.3 61.32-1.63 59.95-3.55 59.62-4.98 59.3-6.4 58.75-10.1L58.75-10.1Q58.6-11.15 58.2-11.48 57.8-11.8 56.65-11.8L56.65-11.8 48.2-11.75Q44.1-5.1 40.8-2.27 37.5 0.55 33.8 0.55L33.8 0.55Q31.5 0.55 30.3-0.35 29.1-1.25 29.1-2.7L29.1-2.7Q29.1-3.85 29.85-4.75 30.6-5.65 31.95-6L31.95-6Q31.95-4 32.52-3.33 33.1-2.65 34.4-2.65L34.4-2.65Q36.9-2.65 39.27-4.63 41.65-6.6 45.25-11.8L45.25-11.8Q44.1-11.9 43.62-12.2 43.15-12.5 43.15-13.1L43.15-13.1Q43.15-13.55 43.4-14.33 43.65-15.1 43.9-15.3L43.9-15.3Q44.7-15 47.15-14.65L47.15-14.65Q49.95-18.9 53.25-24.3 56.55-29.7 57.25-30.85L57.25-30.85Q58.2-32.4 59.95-35.3L59.95-35.3Q60.55-36.2 61.02-36.6 61.5-37 62.25-37L62.25-37Q62.9-37 63.8-36.75L63.8-36.75Q63.25-35.85 62.97-34.15 62.7-32.45 62.65-30.5L62.65-30.5 62.6-28.45Q62.6-25.85 62.72-22.38 62.85-18.9 63-16.7L63-16.7Q63.3-12.3 63.7-9.63 64.1-6.95 65.07-5.18 66.05-3.4 67.8-3.4L67.8-3.4Q68.95-3.4 70.05-4.17 71.15-4.95 72.05-6.2L72.05-6.2ZM54.9-14.15Q56.3-14.15 58.4-14.25L58.4-14.25 58.35-22.1Q58.35-26.3 58.7-29.05L58.7-29.05Q54.1-21.7 53.15-20.05L53.15-20.05 49.8-14.4Q52.65-14.15 54.9-14.15L54.9-14.15ZM90.4-20.9Q91.6-20.9 93.22-20.63 94.85-20.35 95-19.75L95-19.75Q94.2-15.85 93.05-10.7 91.9-5.55 91-2.25L91-2.25Q87.95 9.25 82.02 17.45 76.1 25.65 65.6 25.65L65.6 25.65Q60.9 25.65 58.6 23.93 56.3 22.2 56.3 19.65L56.3 19.65Q56.3 17.95 57.35 16.6L57.35 16.6Q58.85 18.5 61.6 19.75 64.35 21 68 21L68 21Q72.3 21 75.65 18.85 79 16.7 81.8 11.55 84.6 6.4 87-2.5L87-2.5Q85.5-1.45 83.95-0.73 82.4 0 81.4 0L81.4 0Q80.4 0 79.1-0.63 77.8-1.25 76.87-2.25 75.95-3.25 75.95-4.35L75.95-4.35Q76.15-5.35 76.75-8.9L76.75-8.9Q77.65-14.95 78.65-19.4L78.65-19.4Q78.95-20.8 80.75-20.8L80.75-20.8Q81.35-20.8 82.3-20.73 83.25-20.65 83.55-20.55L83.55-20.55Q82.75-16.9 81.4-9.45L81.4-9.45Q80.95-6.65 80.65-5.3L80.65-5.3Q80.6-4.2 81.25-3.48 81.9-2.75 82.75-2.75L82.75-2.75Q83.8-2.75 85.37-3.78 86.95-4.8 87.75-5.85L87.75-5.85 88.7-11.25Q90.05-18.6 90.4-20.9L90.4-20.9ZM126.84-11.2Q127.29-11.2 127.54-10.88 127.79-10.55 127.79-10.05L127.79-10.05Q127.79-8.7 126.12-6.08 124.44-3.45 121.64-1.43 118.84 0.6 115.44 0.6L115.44 0.6Q112.84 0.6 111.42-0.68 109.99-1.95 109.99-4.05L109.99-4.05Q109.99-5.3 110.47-7.15 110.94-9 111.79-11.8L111.79-11.8Q112.59-14.4 113.09-16.45L113.09-16.45Q113.04-16.75 112.69-16.75L112.69-16.75Q111.99-16.75 109.99-14.95 107.99-13.15 106.04-10.9 104.09-8.65 103.64-7.55L103.64-7.55Q102.74-3.5 102.54-2.18 102.34-0.85 102.29-0.7L102.29-0.7Q102.24-0.55 102.19-0.33 102.14-0.1 102.07-0.05 101.99 0 101.84 0L101.84 0Q101.09 0 99.49-0.1 97.89-0.2 97.89-0.4L97.89-0.4Q98.19-2.2 99.44-7.9L99.44-7.9Q99.69-9.3 99.69-9.25L99.69-9.25 101.94-20.25Q101.99-20.6 102.17-20.68 102.34-20.75 102.89-20.75L102.89-20.75Q105.24-20.75 106.29-20L106.29-20Q106.24-19.8 105.74-17.53 105.24-15.25 104.29-11.75L104.29-11.75Q107.09-15.15 110.04-17.9 112.99-20.65 114.04-20.65L114.04-20.65Q114.59-20.65 116.27-20.1 117.94-19.55 118.04-19.2L118.04-19.2 117.14-15.8Q115.84-11.15 115.19-8.4 114.54-5.65 114.54-4.2L114.54-4.2Q114.54-1.9 116.69-1.9L116.69-1.9Q118.44-1.9 120.52-3.28 122.59-4.65 124.32-6.83 126.04-9 126.84-11.2L126.84-11.2ZM147.84-11.45Q148.69-11.05 148.69-10.3L148.69-10.3Q148.69-8.05 146.07-5.58 143.44-3.1 139.57-1.43 135.69 0.25 132.39 0.25L132.39 0.25Q129.69 0.25 127.79-0.85 125.89-1.95 124.92-3.33 123.94-4.7 123.94-5.35L123.94-5.35Q124.29-6.65 124.62-8.45 124.94-10.25 125.09-10.95L125.09-10.95Q125.24-11.85 125.47-13.08 125.69-14.3 126.04-15.9L126.04-15.9Q126.24-16.9 127.79-18.13 129.34-19.35 131.32-20.18 133.29-21 134.59-21L134.59-21Q135.69-21 137.22-20.4 138.74-19.8 139.84-18.73 140.94-17.65 140.94-16.2L140.94-16.2Q140.94-14.35 139.12-12.6 137.29-10.85 134.49-9.73 131.69-8.6 128.99-8.5L128.99-8.5 128.59-6.4Q128.74-4.85 130.04-3.73 131.34-2.6 133.94-2.6L133.94-2.6Q136.44-2.6 139.17-3.75 141.89-4.9 144.22-6.93 146.54-8.95 147.84-11.45L147.84-11.45ZM134.14-18.9Q132.89-18.9 131.72-17.7 130.54-16.5 130.24-15.3L130.24-15.3 129.39-10.75Q132.39-10.95 134.49-12.5 136.59-14.05 136.59-16.15L136.59-16.15Q136.59-17.4 135.87-18.15 135.14-18.9 134.14-18.9L134.14-18.9ZM169.49-17.85Q169.89-17.6 169.89-17.2L169.89-17.2Q169.89-16.1 168.99-15 168.09-13.9 166.49-13.2 164.89-12.5 162.99-12.5L162.99-12.5Q160.34-12.5 158.74-13.85 157.14-15.2 157.04-17.3L157.04-17.3Q154.84-17.1 153.16-15.5 151.49-13.9 150.64-11.6L150.64-11.6 150.64-11.5 150.64-11.5Q150.44-11 150.39-10.75L150.39-10.75Q149.94-9.15 148.44-0.5L148.44-0.5Q148.39 0 146.29 0L146.29 0Q144.29 0 144.29-0.7L144.29-0.7Q144.29-1.1 144.59-2.75L144.59-2.75Q145.49-7.8 146.54-13.25 147.59-18.7 147.84-19.55L147.84-19.55Q148.04-20.3 148.56-20.55 149.09-20.8 149.99-20.8L149.99-20.8Q151.69-20.8 152.89-20.3L152.89-20.3Q152.49-19.15 151.79-16.2L151.79-16.2Q153.19-18.2 154.96-19.4 156.74-20.6 158.59-20.6L158.59-20.6Q159.44-20.6 160.04-20.38 160.64-20.15 160.79-19.85L160.79-19.85Q160.79-14.75 164.54-14.75L164.54-14.75Q167.54-14.75 169.49-17.85L169.49-17.85ZM203.34-52.9Q206.14-52.9 207.96-51.53 209.79-50.15 210.09-47.7L210.09-47.7 210.09-47.25Q207.14-48.65 203.14-48.65L203.14-48.65Q199.24-48.65 196.51-47.6 193.79-46.55 191.51-43.28 189.24-40 187.54-33.55L187.54-33.55Q185.69-26.6 183.89-17.75 182.09-8.9 182.09-6.15L182.09-6.15Q182.09-4.3 182.66-3.45 183.24-2.6 184.34-2.6L184.34-2.6Q186.59-2.6 189.29-4.88 191.99-7.15 193.99-10.7L193.99-10.7Q194.64-10.5 194.64-9.7L194.64-9.7Q194.64-8.05 192.96-5.65 191.29-3.25 188.51-1.5 185.74 0.25 182.64 0.25L182.64 0.25Q180.74 0.25 179.44-0.98 178.14-2.2 177.69-4.35L177.69-4.35Q176.24-2.4 174.21-1 172.19 0.4 170.34 0.4L170.34 0.4Q168.94 0.4 167.71-0.45 166.49-1.3 165.76-2.58 165.04-3.85 165.04-5.05L165.04-5.05Q165.39-6.25 165.69-7.83 165.99-9.4 166.24-10.95L166.24-10.95Q166.39-11.7 166.56-12.73 166.74-13.75 166.99-15L166.99-15Q167.19-16.05 168.51-17.5 169.84-18.95 171.81-20 173.79-21.05 175.89-21.05L175.89-21.05Q177.69-21.05 179.89-19.7L179.89-19.7Q180.69-23.9 181.59-27.8L181.59-27.8Q184.59-40.7 190.26-46.8 195.94-52.9 203.34-52.9L203.34-52.9ZM178.34-11.75L179.44-17.3Q178.64-17.8 177.64-18.1 176.64-18.4 175.84-18.4L175.84-18.4Q174.29-18.4 173.01-17.25 171.74-16.1 171.29-14.35L171.29-14.35Q170.99-13.1 170.29-9.55L170.29-9.55Q169.84-7.05 169.49-5.7L169.49-5.7Q169.49-4.45 170.11-3.53 170.74-2.6 171.59-2.6L171.59-2.6Q173.59-2.6 175.51-5.08 177.44-7.55 178.34-11.75L178.34-11.75Z" opacity="1" transform="matrix(1,0,0,1,0,0)" fill="#113f67" class="undefined-text-0" data-fill-palette-color="primary" id="text-0"></path></svg></g></svg></g></svg></g></svg></g><g></g></svg></g></svg></g></svg></g><g><path d="M133.139 55.507A122.216 122.216 0 0 1 262.381 55.507L254.039 55.507A113.873 113.873 0 0 0 141.481 55.507L133.139 55.507M133.139 191.693A122.216 122.216 0 0 0 262.381 191.693L254.039 191.693A113.873 113.873 0 0 1 141.481 191.693L133.139 191.693" fill="#113f67" stroke="transparent" data-fill-palette-color="tertiary"></path></g></svg></g><defs></defs></svg><rect width="395.52" height="247.2" fill="none" stroke="none" visibility="hidden"></rect></g></svg></g></svg>